<svg width="154" height="180" viewBox="0 0 154 180" fill="none" xmlns="http://www.w3.org/2000/svg">
<path d="M49.143 159.077C23.9657 150.642 7.97779 133.941 1.85791 108.457C-8.53955 65.1615 26.1109 23.0562 70.6592 25.0694C78.6323 25.4297 91.0461 28.0641 98.0461 31.0641C97.8409 36.547 98.0461 45.9284 98.0461 52.0252C105.108 52.0252 111.719 52.0252 119.247 52.0252C119.247 62.6507 119.247 72.6982 119.247 83.2243C124.183 83.2243 132.546 83.2243 136.981 83.2243C136.981 85.0641 137.032 84.1979 136.993 87.1272C136.943 90.9311 136.981 94.7361 136.981 99.1461C133.413 99.1461 130.025 99.1461 126.394 99.1461C126.394 103.515 126.394 107.286 126.394 111.531C129.046 111.531 131.546 111.531 134.046 111.564C127.641 141.714 90.7916 171.305 49.143 159.077Z" fill="#253625"/>
<path d="M153.003 71.9442C153.003 75.0611 153.003 77.6864 153.003 80.8405C147.603 80.8405 142.651 80.8405 137.699 80.8405C132.718 80.8405 127.736 80.8405 122.377 80.8405C122.377 70.5251 122.377 60.4704 122.377 50.0603C132.357 50.0603 142.402 50.0603 153.003 50.0603C153.003 57.2152 153.003 64.3339 153.003 71.9442Z" fill="#253625"/>
<path d="M100.056 36.1154L100.056 31C106.275 31 112.452 31.0539 118.736 31.0539C118.736 37.1263 118.736 43.1654 118.736 49.4711C112.651 49.4711 106.729 49.4711 100.056 49.4711C100.056 45.1025 100.056 40.851 100.056 36.1154Z" fill="#253625"/>
<path d="M131.511 21.1381C135.086 21.1209 141.093 21.1381 144.591 21.1381C144.591 25.3617 144.591 29.3326 144.591 33.6056C140.573 33.6056 136.708 33.6056 131.511 33.6056C131.512 29 131.511 25.5 131.511 21.1381Z" fill="#253625"/>
<path d="M122.035 5C122 5 122 8 122.035 9.59949C119.089 9.59949 116.452 9.59949 113.338 9.59949C113.338 6.72307 113.338 3.83644 113.338 0.584991C115.989 0.584991 118.731 0.584991 122.035 0.584991C122 2 122 5 122.035 5Z" fill="#253625"/>
<path d="M64.384 136.728C59.6907 136.643 55.1253 136.259 50.688 135.576C46.2507 134.808 42.6667 133.784 39.936 132.504V121.624C42.8373 122.989 46.5493 124.184 51.072 125.208C55.5947 126.232 60.032 126.787 64.384 126.872V101.016C60.2027 99.8213 56.5333 98.5413 53.376 97.176C50.304 95.7253 47.7867 94.104 45.824 92.312C43.8613 90.52 42.368 88.472 41.344 86.168C40.4053 83.7787 39.936 81.048 39.936 77.976C39.936 73.7947 40.9173 70.2107 42.88 67.224C44.928 64.2373 47.7867 61.8907 51.456 60.184C55.1253 58.392 59.4347 57.368 64.384 57.112V45.848H72.576V56.984C77.0987 57.0693 81.1947 57.5813 84.864 58.52C88.6187 59.3733 92.032 60.44 95.104 61.72L91.648 71.192C88.9173 70.0827 85.888 69.144 82.56 68.376C79.3173 67.5227 75.9893 66.968 72.576 66.712V92.44C78.208 94.0613 82.9013 95.8107 86.656 97.688C90.4107 99.48 93.2267 101.741 95.104 104.472C97.0667 107.117 98.048 110.573 98.048 114.84C98.048 120.813 95.8293 125.677 91.392 129.432C86.9547 133.101 80.6827 135.363 72.576 136.216V150.424H64.384V136.728ZM72.576 126.232C77.6107 125.72 81.28 124.568 83.584 122.776C85.888 120.899 87.04 118.509 87.04 115.608C87.04 113.475 86.6133 111.725 85.76 110.36C84.9067 108.909 83.4133 107.672 81.28 106.648C79.232 105.624 76.3307 104.643 72.576 103.704V126.232ZM64.384 66.968C61.312 67.1387 58.7947 67.6933 56.832 68.632C54.8693 69.4853 53.376 70.6373 52.352 72.088C51.4133 73.5387 50.944 75.2027 50.944 77.08C50.944 79.2987 51.328 81.2187 52.096 82.84C52.9493 84.376 54.3573 85.6987 56.32 86.808C58.2827 87.832 60.9707 88.7707 64.384 89.624V66.968Z" fill="#EFEFEF"/>
<rect x="98" y="69" width="9" height="9" fill="#EFEFEF"/>
</svg>
